<svg width="51" height="51" xmlns="http://www.w3.org/2000/svg" xmlns:xlink="http://www.w3.org/1999/xlink"><defs><circle id="b" cx="20.5" cy="20.5" r="20.5"/><filter x="-18.3%" y="-13.4%" width="136.6%" height="136.6%" filterUnits="objectBoundingBox" id="a"><feMorphology radius=".5" operator="dilate" in="SourceAlpha" result="shadowSpreadOuter1"/><feOffset dy="2" in="shadowSpreadOuter1" result="shadowOffsetOuter1"/><feMorphology radius="1" in="SourceAlpha" result="shadowInner"/><feOffset dy="2" in="shadowInner" result="shadowInner"/><feComposite in="shadowOffsetOuter1" in2="shadowInner" operator="out" result="shadowOffsetOuter1"/><feGaussianBlur stdDeviation="2" in="shadowOffsetOuter1" result="shadowBlurOuter1"/><feColorMatrix values="0 0 0 0 0.388235294 0 0 0 0 0.470588235 0 0 0 0 0.788235294 0 0 0 0.5 0" in="shadowBlurOuter1"/></filter></defs><g fill="none"><g transform="translate(5 3)"><use fill="#000" filter="url(#a)" xlink:href="#b"/><use stroke="#4E1AAF" xlink:href="#b"/></g><path d="M35.187 15.819a6.171 6.171 0 0 0-8.75 0l-10.03 9.942a4.844 4.844 0 0 0 0 6.827 4.806 4.806 0 0 0 6.805 0l10.03-9.943a3.455 3.455 0 0 0 0-4.876 3.43 3.43 0 0 0-4.86 0l-7.54 7.564a.691.691 0 0 0 0 .976c.268.27.703.27.971 0l7.541-7.565a2.06 2.06 0 0 1 2.917 0c.804.807.804 2.12 0 2.926l-10.03 9.943a3.428 3.428 0 0 1-4.861 0 3.454 3.454 0 0 1 0-4.876l9.932-9.846a4.8 4.8 0 0 1 6.805 0 4.836 4.836 0 0 1 .001 6.827l-7.443 7.466a.688.688 0 1 0 .972.976l7.54-7.564a6.218 6.218 0 0 0 0-8.777z" fill="#4E1AAF"/></g></svg>