<svg width="51" height="51" xmlns="http://www.w3.org/2000/svg" xmlns:xlink="http://www.w3.org/1999/xlink"><defs><circle id="b" cx="20.5" cy="20.5" r="20.5"/><filter x="-18.3%" y="-13.4%" width="136.6%" height="136.6%" filterUnits="objectBoundingBox" id="a"><feMorphology radius=".5" operator="dilate" in="SourceAlpha" result="shadowSpreadOuter1"/><feOffset dy="2" in="shadowSpreadOuter1" result="shadowOffsetOuter1"/><feMorphology radius="1" in="SourceAlpha" result="shadowInner"/><feOffset dy="2" in="shadowInner" result="shadowInner"/><feComposite in="shadowOffsetOuter1" in2="shadowInner" operator="out" result="shadowOffsetOuter1"/><feGaussianBlur stdDeviation="2" in="shadowOffsetOuter1" result="shadowBlurOuter1"/><feColorMatrix values="0 0 0 0 0.388235294 0 0 0 0 0.470588235 0 0 0 0 0.788235294 0 0 0 0.5 0" in="shadowBlurOuter1"/></filter></defs><g fill="none"><g transform="translate(5 3)"><use fill="#000" filter="url(#a)" xlink:href="#b"/><use stroke="#4E1AAF" xlink:href="#b"/></g><g fill="#4E1AAF"><path d="M22.172 24.657l8.485-8.485a2.006 2.006 0 0 0 0-2.829 2.006 2.006 0 0 0-2.829 0l-8.485 8.485a2.006 2.006 0 0 0 0 2.829c.778.778 2.05.778 2.829 0z"/><path d="M22.172 22.343l8.485 8.485a2.006 2.006 0 0 1 0 2.829 2.006 2.006 0 0 1-2.829 0l-8.485-8.485a2.006 2.006 0 0 1 0-2.829 2.006 2.006 0 0 1 2.829 0z"/></g></g></svg>