<svg width="130" height="130" xmlns="http://www.w3.org/2000/svg" xmlns:xlink="http://www.w3.org/1999/xlink"><defs><circle id="b" cx="56" cy="56" r="56"/><filter x="-16.1%" y="-8%" width="132.1%" height="132.1%" filterUnits="objectBoundingBox" id="a"><feOffset dy="9" in="SourceAlpha" result="shadowOffsetOuter1"/><feGaussianBlur stdDeviation="4.5" in="shadowOffsetOuter1" result="shadowBlurOuter1"/><feColorMatrix values="0 0 0 0 0.390161286 0 0 0 0 0.468949481 0 0 0 0 0.789354804 0 0 0 0.452360734 0" in="shadowBlurOuter1"/></filter><path d="M37.106 47.316a7.056 7.056 0 0 0-2.606-1.983c-1.03-.461-2.221-.692-3.574-.692-1.353 0-2.606.262-3.759.784a8.993 8.993 0 0 0-2.998 2.191c-.845.938-1.506 2.052-1.983 3.344-.476 1.291-.715 2.69-.715 4.197 0 1.537.239 2.944.715 4.22.477 1.276 1.13 2.382 1.96 3.32a8.883 8.883 0 0 0 2.929 2.191 8.469 8.469 0 0 0 3.62.784c1.476 0 2.783-.307 3.92-.922a7.802 7.802 0 0 0 2.814-2.583l5.996 4.474c-1.384 1.937-3.137 3.366-5.258 4.289-2.122.922-4.305 1.383-6.55 1.383-2.551 0-4.903-.4-7.056-1.199-2.152-.8-4.012-1.945-5.58-3.436-1.568-1.491-2.79-3.297-3.667-5.419C14.438 60.138 14 57.77 14 55.157c0-2.614.438-4.981 1.314-7.103.877-2.121 2.099-3.928 3.667-5.419 1.568-1.491 3.428-2.636 5.58-3.436C26.714 38.4 29.066 38 31.618 38c.922 0 1.883.085 2.882.254 1 .169 1.983.438 2.952.807.969.369 1.899.86 2.79 1.476a11.098 11.098 0 0 1 2.399 2.26l-5.535 4.52zm20.2-.738l-6.548 5.765-3.92-4.52L57.49 38.83h6.457v32.653h-6.641V46.578zm28.088 13.237c-.37.092-.738.169-1.107.23a7.006 7.006 0 0 1-1.153.093c-1.537 0-2.936-.277-4.197-.83a9.703 9.703 0 0 1-3.228-2.26c-.892-.954-1.584-2.084-2.076-3.39a11.748 11.748 0 0 1-.738-4.174c0-1.691.315-3.22.946-4.59a10.748 10.748 0 0 1 2.582-3.527c1.092-.984 2.376-1.745 3.851-2.283 1.476-.538 3.075-.807 4.797-.807 1.691 0 3.282.269 4.773.807 1.492.538 2.783 1.299 3.874 2.283a10.748 10.748 0 0 1 2.583 3.528c.63 1.368.946 2.898.946 4.589 0 1.168-.108 2.237-.323 3.205-.215.969-.5 1.883-.853 2.744-.354.861-.77 1.684-1.246 2.468a180.9 180.9 0 0 1-1.499 2.421l-7.148 11.161h-8.44l7.656-11.668zm-5.58-10.054c0 1.475.483 2.698 1.452 3.666.969.969 2.237 1.453 3.805 1.453s2.836-.484 3.805-1.453c.968-.968 1.453-2.19 1.453-3.666s-.485-2.698-1.453-3.667c-.969-.968-2.237-1.453-3.805-1.453s-2.836.485-3.805 1.453c-.969.969-1.453 2.19-1.453 3.667z" id="c"/><filter x="-2.4%" y="-5.8%" width="104.8%" height="111.7%" filterUnits="objectBoundingBox" id="d"><feGaussianBlur stdDeviation="1.5" in="SourceAlpha" result="shadowBlurInner1"/><feOffset dy="1" in="shadowBlurInner1" result="shadowOffsetInner1"/><feComposite in="shadowOffsetInner1" in2="SourceAlpha" operator="arithmetic" k2="-1" k3="1" result="shadowInnerInner1"/><feColorMatrix values="0 0 0 0 0.408255421 0 0 0 0 0.495804298 0 0 0 0 0.742532951 0 0 0 1 0" in="shadowInnerInner1"/></filter></defs><g fill="none" fill-rule="evenodd"><g fill-rule="nonzero" transform="translate(9)"><use fill="#000" filter="url(#a)" xlink:href="#b"/><use fill="#FFF" xlink:href="#b"/></g><g transform="translate(9)"><use fill="#94B3F1" xlink:href="#c"/><use fill="#000" filter="url(#d)" xlink:href="#c"/></g></g></svg>