<svg width="106" height="106" xmlns="http://www.w3.org/2000/svg" xmlns:xlink="http://www.w3.org/1999/xlink"><defs><path d="M53 88C28.7 88 9 68.3 9 44S28.7 0 53 0s44 19.7 44 44-19.7 44-44 44zM40.908 38.28l3.6-2.94c-.46-.58-.98-1.07-1.56-1.47-.58-.4-1.185-.72-1.815-.96a10.13 10.13 0 0 0-1.92-.525 11.24 11.24 0 0 0-1.875-.165c-1.66 0-3.19.26-4.59.78s-2.61 1.265-3.63 2.235-1.815 2.145-2.385 3.525c-.57 1.38-.855 2.92-.855 4.62 0 1.7.285 3.24.855 4.62.57 1.38 1.365 2.555 2.385 3.525 1.02.97 2.23 1.715 3.63 2.235 1.4.52 2.93.78 4.59.78 1.46 0 2.88-.3 4.26-.9 1.38-.6 2.52-1.53 3.42-2.79l-3.9-2.91c-.48.72-1.09 1.28-1.83 1.68-.74.4-1.59.6-2.55.6-.84 0-1.625-.17-2.355-.51a5.778 5.778 0 0 1-1.905-1.425 6.822 6.822 0 0 1-1.275-2.16c-.31-.83-.465-1.745-.465-2.745 0-.98.155-1.89.465-2.73.31-.84.74-1.565 1.29-2.175a5.85 5.85 0 0 1 1.95-1.425c.75-.34 1.565-.51 2.445-.51.88 0 1.655.15 2.325.45.67.3 1.235.73 1.695 1.29zm13.14-.48V54h4.32V32.76h-4.2l-6.93 5.85 2.55 2.94 4.26-3.75zm18.27 8.61L67.338 54h5.49l4.65-7.26c.34-.54.665-1.065.975-1.575.31-.51.58-1.045.81-1.605.23-.56.415-1.155.555-1.785.14-.63.21-1.325.21-2.085 0-1.1-.205-2.095-.615-2.985a6.991 6.991 0 0 0-1.68-2.295 7.537 7.537 0 0 0-2.52-1.485 9.079 9.079 0 0 0-3.105-.525c-1.12 0-2.16.175-3.12.525-.96.35-1.795.845-2.505 1.485a6.991 6.991 0 0 0-1.68 2.295c-.41.89-.615 1.885-.615 2.985 0 .96.16 1.865.48 2.715.32.85.77 1.585 1.35 2.205.58.62 1.28 1.11 2.1 1.47.82.36 1.73.54 2.73.54.26 0 .51-.02.75-.06.24-.04.48-.09.72-.15zm-3.63-6.54c0-.96.315-1.755.945-2.385.63-.63 1.455-.945 2.475-.945s1.845.315 2.475.945c.63.63.945 1.425.945 2.385 0 .96-.315 1.755-.945 2.385-.63.63-1.455.945-2.475.945s-1.845-.315-2.475-.945c-.63-.63-.945-1.425-.945-2.385z" id="b"/><filter x="-20.5%" y="-10.2%" width="140.9%" height="140.9%" filterUnits="objectBoundingBox" id="a"><feOffset dy="9" in="SourceAlpha" result="shadowOffsetOuter1"/><feGaussianBlur stdDeviation="4.5" in="shadowOffsetOuter1" result="shadowBlurOuter1"/><feColorMatrix values="0 0 0 0 0.390161286 0 0 0 0 0.468949481 0 0 0 0 0.789354804 0 0 0 0.452360734 0" in="shadowBlurOuter1"/></filter></defs><g fill="none"><use fill="#000" filter="url(#a)" xlink:href="#b"/><use fill="#FFF" xlink:href="#b"/></g></svg>