<svg width="320" height="199" xmlns="http://www.w3.org/2000/svg" xmlns:xlink="http://www.w3.org/1999/xlink"><defs><path id="a" d="M0 0h320v276H0z"/><linearGradient x1="50%" y1="4.379%" x2="50%" y2="100%" id="c"><stop stop-color="#B828F3" stop-opacity=".179" offset="0%"/><stop stop-color="#1F12E2" offset="100%"/></linearGradient><linearGradient x1="50%" y1="0%" x2="50%" y2="90.589%" id="d"><stop stop-color="#EAFFFE" offset="0%"/><stop stop-color="#00C0FF" stop-opacity=".628" offset="100%"/></linearGradient></defs><g transform="translate(0 -59)" fill="none" fill-rule="evenodd"><mask id="b" fill="#fff"><use xlink:href="#a"/></mask><path d="M-30 256c75.333-36 152-45 230-27s149-16.333 213-103L320 0H0l-30 256z" fill="#08D8D5" fill-rule="nonzero" opacity=".241" mask="url(#b)"/><path d="M-30 250c133.269-100.667 279.745-112.333 439.43-35 159.683 77.333 147.741-3-35.827-241H-30v276z" fill="url(#c)" fill-rule="nonzero" opacity=".722" mask="url(#b)"/><path d="M-117 240c106-73.333 237-73.333 393 0s170.667-6.667 44-240H-79l-38 240z" fill="url(#d)" fill-rule="nonzero" opacity=".356" mask="url(#b)"/></g></svg>