<?xml version="1.0" encoding="UTF-8"?>
<svg width="130px" height="130px" viewBox="0 0 130 130" version="1.1" xmlns="http://www.w3.org/2000/svg" xmlns:xlink="http://www.w3.org/1999/xlink">
    <!-- Generator: Sketch 51.2 (57519) - http://www.bohemiancoding.com/sketch -->
    <title>Group 3</title>
    <desc>Created with Sketch.</desc>
    <defs>
        <circle id="path-1" cx="56" cy="56" r="56"></circle>
        <filter x="-16.1%" y="-8.0%" width="132.1%" height="132.1%" filterUnits="objectBoundingBox" id="filter-2">
            <feOffset dx="0" dy="9" in="SourceAlpha" result="shadowOffsetOuter1"></feOffset>
            <feGaussianBlur stdDeviation="4.5" in="shadowOffsetOuter1" result="shadowBlurOuter1"></feGaussianBlur>
            <feColorMatrix values="0 0 0 0 0.390161286   0 0 0 0 0.468949481   0 0 0 0 0.789354804  0 0 0 0.452360734 0" type="matrix" in="shadowBlurOuter1"></feColorMatrix>
        </filter>
        <path d="M37.10612,47.31624 C36.3989431,46.455329 35.5303585,45.7942823 34.50034,45.33308 C33.4703215,44.8718777 32.2789001,44.64128 30.92604,44.64128 C29.5731799,44.64128 28.3202658,44.9026241 27.16726,45.42532 C26.0142542,45.9480159 25.0149976,46.678242 24.16946,47.61602 C23.3239224,48.553798 22.6628757,49.6683535 22.1863,50.95972 C21.7097243,52.2510865 21.47144,53.6500458 21.47144,55.15664 C21.47144,56.693981 21.7097243,58.100627 22.1863,59.37662 C22.6628757,60.652613 23.3162358,61.759482 24.1464,62.69726 C24.9765642,63.635038 25.9527611,64.3652641 27.07502,64.88796 C28.1972789,65.4106559 29.4040735,65.672 30.69544,65.672 C32.1712874,65.672 33.4780076,65.3645364 34.61564,64.7496 C35.7532724,64.1346636 36.6910363,63.2737655 37.42896,62.16688 L43.42456,66.64052 C42.0409531,68.5775697 40.2884106,70.0072754 38.16688,70.92968 C36.0453494,71.8520846 33.8623579,72.31328 31.61784,72.31328 C29.0658539,72.31328 26.7137574,71.9135773 24.56148,71.11416 C22.4092026,70.3147427 20.5490478,69.1694408 18.98096,67.67822 C17.4128722,66.1869992 16.1907044,64.3806506 15.31442,62.25912 C14.4381356,60.1375894 14,57.7701197 14,55.15664 C14,52.5431603 14.4381356,50.1756906 15.31442,48.05416 C16.1907044,45.9326294 17.4128722,44.1262808 18.98096,42.63506 C20.5490478,41.1438392 22.4092026,39.9985373 24.56148,39.19912 C26.7137574,38.3997027 29.0658539,38 31.61784,38 C32.5402446,38 33.5010683,38.0845525 34.50034,38.25366 C35.4996117,38.4227675 36.4834952,38.6917982 37.45202,39.06076 C38.4205448,39.4297218 39.3506222,39.9216636 40.24228,40.5366 C41.1339378,41.1515364 41.9333431,41.9048222 42.64052,42.79648 L37.10612,47.31624 Z M57.30668,46.57832 L50.75764,52.34332 L46.83744,47.82356 L57.49116,38.83016 L63.94796,38.83016 L63.94796,71.48312 L57.30668,71.48312 L57.30668,46.57832 Z M85.39376,59.81476 C85.0247982,59.9070005 84.6558418,59.9838664 84.28688,60.04536 C83.9179182,60.1068536 83.5335887,60.1376 83.13388,60.1376 C81.596539,60.1376 80.1975796,59.8608828 78.93696,59.30744 C77.6763404,58.7539972 76.6002178,58.0007114 75.70856,57.04756 C74.8169022,56.0944086 74.1251091,54.9644799 73.63316,53.65774 C73.1412109,52.3510001 72.89524,50.9597274 72.89524,49.48388 C72.89524,47.7928049 73.2103902,46.2631735 73.8407,44.89494 C74.4710098,43.5267065 75.3319079,42.3506583 76.42342,41.36676 C77.5149321,40.3828617 78.7985926,39.6218894 80.27444,39.08382 C81.7502874,38.5457506 83.3490981,38.27672 85.07092,38.27672 C86.7619951,38.27672 88.3531192,38.5457506 89.84434,39.08382 C91.3355608,39.6218894 92.6269079,40.3828617 93.71842,41.36676 C94.8099321,42.3506583 95.6708302,43.5267065 96.30114,44.89494 C96.9314498,46.2631735 97.2466,47.7928049 97.2466,49.48388 C97.2466,50.6522592 97.1389877,51.7206952 96.92376,52.68922 C96.7085323,53.6577448 96.4241284,54.572449 96.07054,55.43336 C95.7169516,56.294271 95.3018757,57.1167361 94.8253,57.90078 C94.3487243,58.6848239 93.8490959,59.4919158 93.3264,60.32208 L86.1778,71.48312 L77.73784,71.48312 L85.39376,59.81476 Z M79.81324,49.7606 C79.81324,51.2364474 80.2974952,52.4586152 81.26602,53.42714 C82.2345448,54.3956648 83.5028322,54.87992 85.07092,54.87992 C86.6390078,54.87992 87.9072952,54.3956648 88.87582,53.42714 C89.8443448,52.4586152 90.3286,51.2364474 90.3286,49.7606 C90.3286,48.2847526 89.8443448,47.0625848 88.87582,46.09406 C87.9072952,45.1255352 86.6390078,44.64128 85.07092,44.64128 C83.5028322,44.64128 82.2345448,45.1255352 81.26602,46.09406 C80.2974952,47.0625848 79.81324,48.2847526 79.81324,49.7606 Z" id="path-3"></path>
        <filter x="-2.4%" y="-5.8%" width="104.8%" height="111.7%" filterUnits="objectBoundingBox" id="filter-4">
            <feGaussianBlur stdDeviation="1.5" in="SourceAlpha" result="shadowBlurInner1"></feGaussianBlur>
            <feOffset dx="0" dy="1" in="shadowBlurInner1" result="shadowOffsetInner1"></feOffset>
            <feComposite in="shadowOffsetInner1" in2="SourceAlpha" operator="arithmetic" k2="-1" k3="1" result="shadowInnerInner1"></feComposite>
            <feColorMatrix values="0 0 0 0 0.408255421   0 0 0 0 0.495804298   0 0 0 0 0.742532951  0 0 0 1 0" type="matrix" in="shadowInnerInner1"></feColorMatrix>
        </filter>
    </defs>
    <g id="Mock-1" stroke="none" stroke-width="1" fill="none" fill-rule="evenodd">
        <g id="Group-3" transform="translate(9.000000, 0.000000)">
            <g id="Oval-Copy" fill-rule="nonzero">
                <use fill="black" fill-opacity="1" filter="url(#filter-2)" xlink:href="#path-1"></use>
                <use fill="#FFFFFF" xlink:href="#path-1"></use>
            </g>
            <g id="C19-Copy">
                <use fill="#94B3F1" fill-rule="evenodd" xlink:href="#path-3"></use>
                <use fill="black" fill-opacity="1" filter="url(#filter-4)" xlink:href="#path-3"></use>
            </g>
        </g>
    </g>
</svg>