<?xml version="1.0" encoding="UTF-8"?>
<svg width="106px" height="106px" viewBox="0 0 106 106" version="1.1" xmlns="http://www.w3.org/2000/svg" xmlns:xlink="http://www.w3.org/1999/xlink">
    <!-- Generator: Sketch 52.2 (67145) - http://www.bohemiancoding.com/sketch -->
    <title>Logo Copy</title>
    <desc>Created with Sketch.</desc>
    <defs>
        <path d="M53,88 C28.699471,88 9,68.300529 9,44 C9,19.699471 28.699471,0 53,0 C77.300529,0 97,19.699471 97,44 C97,68.300529 77.300529,88 53,88 Z M40.9078571,38.28 L44.5078571,35.34 C44.0478548,34.7599971 43.52786,34.270002 42.9478571,33.87 C42.3678542,33.469998 41.7628603,33.1500012 41.1328571,32.91 C40.502854,32.6699988 39.8628604,32.4950006 39.2128571,32.385 C38.5628539,32.2749995 37.9378601,32.22 37.3378571,32.22 C35.6778488,32.22 34.1478641,32.4799974 32.7478571,33 C31.3478501,33.5200026 30.1378622,34.2649952 29.1178571,35.235 C28.097852,36.2050049 27.30286,37.3799931 26.7328571,38.76 C26.1628543,40.1400069 25.8778571,41.6799915 25.8778571,43.38 C25.8778571,45.0800085 26.1628543,46.6199931 26.7328571,48 C27.30286,49.3800069 28.097852,50.5549951 29.1178571,51.525 C30.1378622,52.4950049 31.3478501,53.2399974 32.7478571,53.76 C34.1478641,54.2800026 35.6778488,54.54 37.3378571,54.54 C38.7978644,54.54 40.2178502,54.240003 41.5978571,53.64 C42.977864,53.039997 44.1178526,52.1100063 45.0178571,50.85 L41.1178571,47.94 C40.6378547,48.6600036 40.0278608,49.219998 39.2878571,49.62 C38.5478534,50.020002 37.6978619,50.22 36.7378571,50.22 C35.8978529,50.22 35.1128608,50.0500017 34.3828571,49.71 C33.6528535,49.3699983 33.0178598,48.895003 32.4778571,48.285 C31.9378544,47.674997 31.5128587,46.9550042 31.2028571,46.125 C30.8928556,45.2949958 30.7378571,44.380005 30.7378571,43.38 C30.7378571,42.3999951 30.8928556,41.4900042 31.2028571,40.65 C31.5128587,39.8099958 31.9428544,39.0850031 32.4928571,38.475 C33.0428599,37.864997 33.6928534,37.3900017 34.4428571,37.05 C35.1928609,36.7099983 36.0078527,36.54 36.8878571,36.54 C37.7678615,36.54 38.5428538,36.6899985 39.2128571,36.99 C39.8828605,37.2900015 40.4478548,37.7199972 40.9078571,38.28 Z M54.0478571,37.8 L54.0478571,54 L58.3678571,54 L58.3678571,32.76 L54.1678571,32.76 L47.2378571,38.61 L49.7878571,41.55 L54.0478571,37.8 Z M72.3178571,46.41 L67.3378571,54 L72.8278571,54 L77.4778571,46.74 C77.8178588,46.1999973 78.1428556,45.6750026 78.4528571,45.165 C78.7628587,44.6549974 79.032856,44.1200028 79.2628571,43.56 C79.4928583,42.9999972 79.6778564,42.4050031 79.8178571,41.775 C79.9578578,41.1449968 80.0278571,40.4500038 80.0278571,39.69 C80.0278571,38.5899945 79.8228592,37.5950045 79.4128571,36.705 C79.0028551,35.8149956 78.4428607,35.0500032 77.7328571,34.41 C77.0228536,33.7699968 76.182862,33.2750018 75.2128571,32.925 C74.2428523,32.5749983 73.2078626,32.4 72.1078571,32.4 C70.9878515,32.4 69.9478619,32.5749983 68.9878571,32.925 C68.0278523,33.2750018 67.1928607,33.7699968 66.4828571,34.41 C65.7728536,35.0500032 65.2128592,35.8149956 64.8028571,36.705 C64.3928551,37.5950045 64.1878571,38.5899945 64.1878571,39.69 C64.1878571,40.6500048 64.3478555,41.5549958 64.6678571,42.405 C64.9878587,43.2550042 65.4378542,43.9899969 66.0178571,44.61 C66.59786,45.2300031 67.297853,45.7199982 68.1178571,46.08 C68.9378612,46.4400018 69.8478521,46.62 70.8478571,46.62 C71.1078584,46.62 71.3578559,46.6000002 71.5978571,46.56 C71.8378583,46.5199998 72.0778559,46.4700003 72.3178571,46.41 Z M68.6878571,39.87 C68.6878571,38.9099952 69.002854,38.1150031 69.6328571,37.485 C70.2628603,36.8549968 71.087852,36.54 72.1078571,36.54 C73.1278622,36.54 73.952854,36.8549968 74.5828571,37.485 C75.2128603,38.1150031 75.5278571,38.9099952 75.5278571,39.87 C75.5278571,40.8300048 75.2128603,41.6249969 74.5828571,42.255 C73.952854,42.8850032 73.1278622,43.2 72.1078571,43.2 C71.087852,43.2 70.2628603,42.8850032 69.6328571,42.255 C69.002854,41.6249969 68.6878571,40.8300048 68.6878571,39.87 Z" id="path-1"></path>
        <filter x="-20.5%" y="-10.2%" width="140.9%" height="140.9%" filterUnits="objectBoundingBox" id="filter-2">
            <feOffset dx="0" dy="9" in="SourceAlpha" result="shadowOffsetOuter1"></feOffset>
            <feGaussianBlur stdDeviation="4.5" in="shadowOffsetOuter1" result="shadowBlurOuter1"></feGaussianBlur>
            <feColorMatrix values="0 0 0 0 0.390161286   0 0 0 0 0.468949481   0 0 0 0 0.789354804  0 0 0 0.452360734 0" type="matrix" in="shadowBlurOuter1"></feColorMatrix>
        </filter>
    </defs>
    <g id="Dean-Version" stroke="none" stroke-width="1" fill="none" fill-rule="evenodd">
        <g id="Logo-Copy" fill-rule="nonzero">
            <use fill="black" fill-opacity="1" filter="url(#filter-2)" xlink:href="#path-1"></use>
            <use fill="#FFFFFF" xlink:href="#path-1"></use>
        </g>
    </g>
</svg>