<?xml version="1.0" encoding="UTF-8"?>
<svg width="51px" height="51px" viewBox="0 0 51 51" version="1.1" xmlns="http://www.w3.org/2000/svg" xmlns:xlink="http://www.w3.org/1999/xlink">
    <!-- Generator: Sketch 51.2 (57519) - http://www.bohemiancoding.com/sketch -->
    <title>Group 5</title>
    <desc>Created with Sketch.</desc>
    <defs>
        <circle id="path-1" cx="20.5" cy="20.5" r="20.5"></circle>
        <filter x="-18.3%" y="-13.4%" width="136.6%" height="136.6%" filterUnits="objectBoundingBox" id="filter-2">
            <feMorphology radius="0.5" operator="dilate" in="SourceAlpha" result="shadowSpreadOuter1"></feMorphology>
            <feOffset dx="0" dy="2" in="shadowSpreadOuter1" result="shadowOffsetOuter1"></feOffset>
            <feMorphology radius="1" operator="erode" in="SourceAlpha" result="shadowInner"></feMorphology>
            <feOffset dx="0" dy="2" in="shadowInner" result="shadowInner"></feOffset>
            <feComposite in="shadowOffsetOuter1" in2="shadowInner" operator="out" result="shadowOffsetOuter1"></feComposite>
            <feGaussianBlur stdDeviation="2" in="shadowOffsetOuter1" result="shadowBlurOuter1"></feGaussianBlur>
            <feColorMatrix values="0 0 0 0 0.388235294   0 0 0 0 0.470588235   0 0 0 0 0.788235294  0 0 0 0.5 0" type="matrix" in="shadowBlurOuter1"></feColorMatrix>
        </filter>
    </defs>
    <g id="Mock-1" stroke="none" stroke-width="1" fill="none" fill-rule="evenodd">
        <g id="Connect-Wall" transform="translate(-262.000000, -51.000000)" fill-rule="nonzero">
            <g id="Group-5" transform="translate(267.000000, 54.000000)">
                <g id="Oval-3">
                    <use fill="black" fill-opacity="1" filter="url(#filter-2)" xlink:href="#path-1"></use>
                    <use stroke="#4E1AAF" stroke-width="1" xlink:href="#path-1"></use>
                </g>
                <g id="if_icons_menu_1564512" transform="translate(11.000000, 13.000000)" fill="#4E1AAF">
                    <path d="M18,6 L2,6 C0.9,6 0,6.9 0,8 C0,9.1 0.9,10 2,10 L18,10 C19.1,10 20,9.1 20,8 C20,6.9 19.1,6 18,6 Z" id="Shape"></path>
                    <path d="M2,4 L14,4 C15.1,4 16,3.1 16,2 C16,0.9 15.1,0 14,0 L2,0 C0.9,0 0,0.9 0,2 C0,3.1 0.9,4 2,4 Z" id="Shape"></path>
                    <path d="M14,12 L2,12 C0.9,12 0,12.9 0,14 C0,15.1 0.9,16 2,16 L14,16 C15.1,16 16,15.1 16,14 C16,12.9 15.1,12 14,12 Z" id="Shape"></path>
                </g>
            </g>
        </g>
    </g>
</svg>