<?xml version="1.0" encoding="UTF-8"?>
<svg width="20px" height="16px" viewBox="0 0 20 16" version="1.1" xmlns="http://www.w3.org/2000/svg" xmlns:xlink="http://www.w3.org/1999/xlink">
    <!-- Generator: sketchtool 52.4 (67378) - http://www.bohemiancoding.com/sketch -->
    <title>D5F82A37-D104-43C6-9794-C8544E59E1A2</title>
    <desc>Created with sketchtool.</desc>
    <g id="Dean-Version" stroke="none" stroke-width="1" fill="none" fill-rule="evenodd">
        <g id="Wall" transform="translate(-284.000000, -13.000000)" fill="#4E1AAF" fill-rule="nonzero">
            <g id="Naviagtion" transform="translate(0.000000, -1.000000)">
                <g id="Menu-Button" transform="translate(294.000000, 22.000000) scale(-1, 1) translate(-294.000000, -22.000000) translate(284.000000, 14.000000)">
                    <path d="M18,6 L2,6 C0.9,6 0,6.9 0,8 C0,9.1 0.9,10 2,10 L18,10 C19.1,10 20,9.1 20,8 C20,6.9 19.1,6 18,6 Z" id="Shape"></path>
                    <path d="M2,4 L14,4 C15.1,4 16,3.1 16,2 C16,0.9 15.1,0 14,0 L2,0 C0.9,0 0,0.9 0,2 C0,3.1 0.9,4 2,4 Z" id="Shape"></path>
                    <path d="M14,12 L2,12 C0.9,12 0,12.9 0,14 C0,15.1 0.9,16 2,16 L14,16 C15.1,16 16,15.1 16,14 C16,12.9 15.1,12 14,12 Z" id="Shape"></path>
                </g>
            </g>
        </g>
    </g>
</svg>