<?xml version="1.0" encoding="UTF-8"?>
<svg width="320px" height="199px" viewBox="0 0 320 199" version="1.1" xmlns="http://www.w3.org/2000/svg" xmlns:xlink="http://www.w3.org/1999/xlink">
    <!-- Generator: Sketch 51.2 (57519) - http://www.bohemiancoding.com/sketch -->
    <title>Path 3</title>
    <desc>Created with Sketch.</desc>
    <defs>
        <rect id="path-1" x="0" y="0" width="320" height="276"></rect>
        <linearGradient x1="50%" y1="4.37896286%" x2="50%" y2="100%" id="linearGradient-3">
            <stop stop-color="#B828F3" stop-opacity="0.179376132" offset="0%"></stop>
            <stop stop-color="#1F12E2" offset="100%"></stop>
        </linearGradient>
        <linearGradient x1="50%" y1="0%" x2="50%" y2="90.5889031%" id="linearGradient-4">
            <stop stop-color="#EAFFFE" offset="0%"></stop>
            <stop stop-color="#00C0FF" stop-opacity="0.628368433" offset="100%"></stop>
        </linearGradient>
    </defs>
    <g id="Mock-1" stroke="none" stroke-width="1" fill="none" fill-rule="evenodd">
        <g id="Registration">
            <g id="Path-3" transform="translate(0.000000, -59.000000)">
                <mask id="mask-2" fill="white">
                    <use xlink:href="#path-1"></use>
                </mask>
                <g id="Mask" fill-rule="nonzero"></g>
                <path d="M-30,256 C45.3333333,220 122,211 200,229 C278,247 349,212.666667 413,126 L320,-1.42108547e-14 L3.55271368e-15,-1.42108547e-14 L-30,256 Z" fill="#08D8D5" fill-rule="nonzero" opacity="0.24140625" mask="url(#mask-2)"></path>
                <path d="M-30,250 C103.268525,149.333333 249.744894,137.666667 409.429107,215 C569.113321,292.333333 557.171126,212 373.602521,-26 L-30,-26 L-30,250 Z" id="Path-4" fill="url(#linearGradient-3)" fill-rule="nonzero" opacity="0.721763393" mask="url(#mask-2)"></path>
                <path d="M-117,240 C-11,166.666667 120,166.666667 276,240 C432,313.333333 446.666667,233.333333 320,0 L-79,0 L-117,240 Z" id="Path-5" fill="url(#linearGradient-4)" fill-rule="nonzero" opacity="0.356194196" mask="url(#mask-2)"></path>
            </g>
        </g>
    </g>
</svg>